<svg xmlns="http://www.w3.org/2000/svg" xmlns:xlink="http://www.w3.org/1999/xlink" width="512" zoomAndPan="magnify" viewBox="0 0 384 383.999986" height="512" preserveAspectRatio="xMidYMid meet" version="1.0"><defs><clipPath id="add27ea98f"><path d="M 86.398438 0 L 297.601562 0 C 320.515625 0 342.492188 9.101562 358.695312 25.304688 C 374.898438 41.507812 384 63.484375 384 86.398438 L 384 297.601562 C 384 345.316406 345.316406 384 297.601562 384 L 86.398438 384 C 38.683594 384 0 345.316406 0 297.601562 L 0 86.398438 C 0 38.683594 38.683594 0 86.398438 0 Z M 86.398438 0 " clip-rule="nonzero"/></clipPath><clipPath id="ed9c031886"><path d="M 0 0 L 384 0 L 384 384 L 0 384 Z M 0 0 " clip-rule="nonzero"/></clipPath><clipPath id="47439d68ec"><path d="M 86.398438 0 L 297.601562 0 C 320.515625 0 342.492188 9.101562 358.695312 25.304688 C 374.898438 41.507812 384 63.484375 384 86.398438 L 384 297.601562 C 384 345.316406 345.316406 384 297.601562 384 L 86.398438 384 C 38.683594 384 0 345.316406 0 297.601562 L 0 86.398438 C 0 38.683594 38.683594 0 86.398438 0 Z M 86.398438 0 " clip-rule="nonzero"/></clipPath><clipPath id="59c85e8113"><rect x="0" width="384" y="0" height="384"/></clipPath></defs><g clip-path="url(#add27ea98f)"><g><g clip-path="url(#59c85e8113)"><g clip-path="url(#ed9c031886)"><g clip-path="url(#47439d68ec)"><rect x="-84.48" width="552.96" fill="#0f0f0f" height="552.959979" y="-84.479997" fill-opacity="1"/></g></g></g></g></g><path stroke-linecap="round" transform="matrix(8.5625, 0, 0, 8.5625, 89.199367, 89.19936)" fill="none" stroke-linejoin="round" d="M 13.400074 1.999983 L 5.999983 1.999983 C 5.934289 1.999983 5.869052 2.003177 5.803815 2.009564 C 5.738578 2.015951 5.674253 2.025531 5.609928 2.038305 C 5.545603 2.051078 5.482191 2.067046 5.419234 2.086206 C 5.356734 2.104911 5.295147 2.127265 5.234472 2.152356 C 5.174253 2.177447 5.114946 2.205275 5.057008 2.236297 C 4.999526 2.266863 4.943413 2.300622 4.888669 2.337119 C 4.83438 2.373615 4.781917 2.412392 4.731278 2.453907 C 4.68064 2.495421 4.632282 2.539673 4.585749 2.58575 C 4.539672 2.632283 4.495421 2.68064 4.453906 2.731279 C 4.412391 2.781918 4.373614 2.834381 4.337118 2.88867 C 4.300621 2.943414 4.266862 2.999527 4.236297 3.057009 C 4.205275 3.114947 4.177446 3.174254 4.152355 3.234473 C 4.127264 3.295148 4.10491 3.356735 4.086205 3.419235 C 4.067045 3.482192 4.051078 3.545604 4.038304 3.609929 C 4.02553 3.674254 4.01595 3.738578 4.009563 3.803816 C 4.003176 3.869053 3.999983 3.93429 3.999983 3.999984 L 3.999983 19.999984 C 3.999983 20.065677 4.003176 20.130914 4.009563 20.196151 C 4.01595 20.261389 4.02553 20.325714 4.038304 20.390038 C 4.051078 20.454363 4.067045 20.517776 4.086205 20.580732 C 4.10491 20.643232 4.127264 20.704819 4.152355 20.765495 C 4.177446 20.825714 4.205275 20.88502 4.236297 20.942958 C 4.266862 21.00044 4.300621 21.056553 4.337118 21.111297 C 4.373614 21.165586 4.412391 21.218049 4.453906 21.268688 C 4.495421 21.319327 4.539672 21.367684 4.585749 21.414217 C 4.632282 21.46075 4.68064 21.504546 4.731278 21.54606 C 4.781917 21.587575 4.83438 21.626352 4.888669 21.662849 C 4.943413 21.699345 4.999526 21.733104 5.057008 21.76367 C 5.114946 21.794692 5.174253 21.82252 5.234472 21.847611 C 5.295147 21.872703 5.356734 21.895057 5.419234 21.913761 C 5.482191 21.932922 5.545603 21.948889 5.609928 21.961662 C 5.674253 21.974436 5.738578 21.984016 5.803815 21.990403 C 5.869052 21.99679 5.934289 21.999984 5.999983 21.999984 L 17.999983 21.999984 C 18.065676 21.999984 18.130913 21.99679 18.196151 21.990403 C 18.261388 21.984016 18.325713 21.974436 18.390037 21.961662 C 18.454362 21.948889 18.517775 21.932922 18.580731 21.913761 C 18.643231 21.895057 18.704818 21.872703 18.765494 21.847611 C 18.825713 21.82252 18.885019 21.794692 18.942957 21.76367 C 19.000439 21.733104 19.056552 21.699345 19.111297 21.662849 C 19.165585 21.626352 19.218048 21.587575 19.268687 21.54606 C 19.319326 21.504546 19.367683 21.46075 19.414216 21.414217 C 19.460749 21.367684 19.504545 21.319327 19.546059 21.268688 C 19.587574 21.218049 19.626351 21.165586 19.662848 21.111297 C 19.699344 21.056553 19.733103 21.00044 19.763669 20.942958 C 19.794691 20.88502 19.822519 20.825714 19.84761 20.765495 C 19.872702 20.704819 19.895056 20.643232 19.91376 20.580732 C 19.932921 20.517776 19.948888 20.454363 19.961662 20.390038 C 19.974435 20.325714 19.984016 20.261389 19.990402 20.196151 C 19.996789 20.130914 19.999983 20.065677 19.999983 19.999984 L 19.999983 12.599892 " stroke="#ffffff" stroke-width="2" stroke-opacity="1" stroke-miterlimit="4"/><path stroke-linecap="round" transform="matrix(8.5625, 0, 0, 8.5625, 89.199367, 89.19936)" fill="none" stroke-linejoin="round" d="M 1.999983 5.999984 L 5.999983 5.999984 " stroke="#ffffff" stroke-width="2" stroke-opacity="1" stroke-miterlimit="4"/><path stroke-linecap="round" transform="matrix(8.5625, 0, 0, 8.5625, 89.199367, 89.19936)" fill="none" stroke-linejoin="round" d="M 1.999983 9.999984 L 5.999983 9.999984 " stroke="#ffffff" stroke-width="2" stroke-opacity="1" stroke-miterlimit="4"/><path stroke-linecap="round" transform="matrix(8.5625, 0, 0, 8.5625, 89.199367, 89.19936)" fill="none" stroke-linejoin="round" d="M 1.999983 13.999984 L 5.999983 13.999984 " stroke="#ffffff" stroke-width="2" stroke-opacity="1" stroke-miterlimit="4"/><path stroke-linecap="round" transform="matrix(8.5625, 0, 0, 8.5625, 89.199367, 89.19936)" fill="none" stroke-linejoin="round" d="M 1.999983 17.999984 L 5.999983 17.999984 " stroke="#ffffff" stroke-width="2" stroke-opacity="1" stroke-miterlimit="4"/><path stroke-linecap="round" transform="matrix(8.5625, 0, 0, 8.5625, 89.199367, 89.19936)" fill="none" stroke-linejoin="round" d="M 21.378176 5.625896 C 21.42699 5.576626 21.473979 5.525531 21.517775 5.471699 C 21.562027 5.417867 21.603541 5.361754 21.642319 5.304272 C 21.68064 5.246334 21.71668 5.186571 21.749527 5.12544 C 21.781917 5.063852 21.812027 5.001352 21.838486 4.937027 C 21.864946 4.872702 21.888669 4.807009 21.908742 4.740403 C 21.928815 4.674254 21.945694 4.606735 21.959381 4.538305 C 21.973067 4.47033 21.983103 4.401443 21.989946 4.3321 C 21.996789 4.262757 21.999983 4.193414 21.999983 4.124071 C 21.999983 4.054272 21.996789 3.984929 21.989946 3.915586 C 21.983103 3.846699 21.973067 3.777812 21.959381 3.709381 C 21.945694 3.641407 21.928815 3.573889 21.908742 3.507283 C 21.888669 3.440677 21.864946 3.37544 21.838486 3.311115 C 21.812027 3.24679 21.781917 3.183834 21.749527 3.122702 C 21.71668 3.061115 21.68064 3.001808 21.642319 2.94387 C 21.603541 2.885932 21.562027 2.830275 21.517775 2.776443 C 21.473979 2.722611 21.42699 2.67106 21.378176 2.62179 C 21.328906 2.572976 21.277355 2.525987 21.223523 2.482192 C 21.169691 2.43794 21.114034 2.396425 21.056096 2.357648 C 20.998158 2.319327 20.938851 2.283286 20.877264 2.250896 C 20.816132 2.218049 20.753176 2.18794 20.688851 2.16148 C 20.624527 2.13502 20.559289 2.111297 20.492683 2.091224 C 20.426078 2.071151 20.358559 2.054272 20.290585 2.040586 C 20.222154 2.0269 20.153267 2.016863 20.084381 2.01002 C 20.015037 2.003177 19.945694 1.999983 19.875895 1.999983 C 19.806552 1.999983 19.737209 2.003177 19.667866 2.01002 C 19.598523 2.016863 19.529636 2.0269 19.461662 2.040586 C 19.393231 2.054272 19.326169 2.071151 19.259563 2.091224 C 19.192957 2.111297 19.127264 2.13502 19.062939 2.16148 C 18.99907 2.18794 18.936114 2.218049 18.874527 2.250896 C 18.813395 2.283286 18.753632 2.319327 18.695694 2.357648 C 18.638213 2.396425 18.5821 2.43794 18.528267 2.482192 C 18.474891 2.525987 18.42334 2.572976 18.37407 2.62179 L 13.364034 7.634108 C 13.122245 7.87544 12.953906 8.160111 12.858103 8.488122 L 12.020968 11.358104 C 11.995421 11.445695 11.994052 11.533743 12.016862 11.622246 C 12.039216 11.710294 12.083012 11.786936 12.147337 11.851717 C 12.212118 11.916042 12.288304 11.959838 12.376808 11.982192 C 12.465311 12.005002 12.553359 12.003633 12.64095 11.978086 L 15.510932 11.140951 C 15.838943 11.045148 16.123614 10.876808 16.364946 10.63502 Z M 21.378176 5.625896 " stroke="#ffffff" stroke-width="2" stroke-opacity="1" stroke-miterlimit="4"/></svg>